<?xml version="1.0" encoding="UTF-8" standalone="no"?>
<!-- Generator: Adobe Illustrator 13.0.0, SVG Export Plug-In . SVG Version: 6.00 Build 14948)  -->

<svg
   xmlns:dc="http://purl.org/dc/elements/1.1/"
   xmlns:cc="http://creativecommons.org/ns#"
   xmlns:rdf="http://www.w3.org/1999/02/22-rdf-syntax-ns#"
   xmlns:svg="http://www.w3.org/2000/svg"
   xmlns="http://www.w3.org/2000/svg"
   xmlns:xlink="http://www.w3.org/1999/xlink"
   xmlns:sodipodi="http://sodipodi.sourceforge.net/DTD/sodipodi-0.dtd"
   xmlns:inkscape="http://www.inkscape.org/namespaces/inkscape"
   version="1.1"
   id="Layer_1"
   x="0px"
   y="0px"
   width="110px"
   height="117.4px"
   viewBox="0 0 110 117.4"
   enable-background="new 0 0 110 117.4"
   xml:space="preserve"
   inkscape:version="0.48.0 r9654"
   sodipodi:docname="FBVectorIcon.svg"
   inkscape:export-filename="/home/geometer/FBVectorIcon.png"
   inkscape:export-xdpi="392.50424"
   inkscape:export-ydpi="392.50424"><metadata
   id="metadata99"><rdf:RDF><cc:Work
       rdf:about=""><dc:format>image/svg+xml</dc:format><dc:type
         rdf:resource="http://purl.org/dc/dcmitype/StillImage" /><dc:title></dc:title></cc:Work></rdf:RDF></metadata><defs
   id="defs97"><linearGradient
     inkscape:collect="always"
     xlink:href="#SVGID_2_"
     id="linearGradient3123"
     gradientUnits="userSpaceOnUse"
     gradientTransform="matrix(0.0311,0,0,0.0482,-3903.4512,-3296.7014)"
     x1="127278.4531"
     y1="69960.6172"
     x2="128916.8594"
     y2="69960.6172" /><linearGradient
     inkscape:collect="always"
     xlink:href="#SVGID_3_"
     id="linearGradient3125"
     gradientUnits="userSpaceOnUse"
     gradientTransform="matrix(0.0311,0,0,0.0482,-3954.4512,-3296.7014)"
     x1="127278.4688"
     y1="69960.6172"
     x2="128916.8594"
     y2="69960.6172" /><linearGradient
     inkscape:collect="always"
     xlink:href="#SVGID_4_"
     id="linearGradient3127"
     gradientUnits="userSpaceOnUse"
     gradientTransform="matrix(0.0299,0,0,0.0494,-3909.3132,-3295.6973)"
     x1="132585.7344"
     y1="68200.3516"
     x2="134224.5313"
     y2="68200.3516" /><linearGradient
     inkscape:collect="always"
     xlink:href="#SVGID_5_"
     id="linearGradient3129"
     gradientUnits="userSpaceOnUse"
     gradientTransform="matrix(0.0299,0,0,0.0494,-3958.3132,-3295.6973)"
     x1="132585.7344"
     y1="68200.3516"
     x2="134224.5313"
     y2="68200.3516" /><linearGradient
     inkscape:collect="always"
     xlink:href="#SVGID_6_"
     id="linearGradient3131"
     gradientUnits="userSpaceOnUse"
     gradientTransform="matrix(0.0275,0,0,0.0544,-3921.0376,-3281.7539)"
     x1="144587.0625"
     y1="61600.4609"
     x2="146225.4688"
     y2="61600.4609" /><linearGradient
     inkscape:collect="always"
     xlink:href="#SVGID_7_"
     id="linearGradient3133"
     gradientUnits="userSpaceOnUse"
     gradientTransform="matrix(0.0275,0,0,0.0538,-3966.0376,-3283.9314)"
     x1="144587.0781"
     y1="62328.6406"
     x2="146225.4688"
     y2="62328.6406" /><linearGradient
     inkscape:collect="always"
     xlink:href="#SVGID_8_"
     id="linearGradient3135"
     gradientUnits="userSpaceOnUse"
     gradientTransform="matrix(6e-4,0.0342,-0.036,7e-4,-4167.9482,-3334.4929)"
     x1="100782.68"
     y1="-115874.79"
     x2="102421.08"
     y2="-115874.79" /><linearGradient
     inkscape:collect="always"
     xlink:href="#SVGID_8_"
     id="linearGradient3182"
     gradientUnits="userSpaceOnUse"
     gradientTransform="matrix(6e-4,0.0342,-0.036,7e-4,-4167.9482,-3334.4929)"
     x1="100782.68"
     y1="-115874.79"
     x2="102421.08"
     y2="-115874.79" /></defs><sodipodi:namedview
   pagecolor="#ffffff"
   bordercolor="#666666"
   borderopacity="1"
   objecttolerance="10"
   gridtolerance="10"
   guidetolerance="10"
   inkscape:pageopacity="0"
   inkscape:pageshadow="2"
   inkscape:window-width="876"
   inkscape:window-height="583"
   id="namedview95"
   showgrid="false"
   inkscape:zoom="4.0850724"
   inkscape:cx="114.74666"
   inkscape:cy="61.934842"
   inkscape:window-x="207"
   inkscape:window-y="25"
   inkscape:window-maximized="0"
   inkscape:current-layer="Layer_1" />






<g
   id="g12"
   transform="translate(0,-13.494253)">
	<path
   style="fill:#e52d09"
   inkscape:connector-curvature="0"
   d="m 0,113.4 55,4 55,-4 v -74 H 0 v 74 z"
   id="path14" />
</g><g
   id="g16"
   transform="translate(0,-13.494253)">
	<path
   style="fill:#5c512a"
   inkscape:connector-curvature="0"
   d="m 108,36.4 h -1 v 74.2 l -52,3.8 v 1 l 53,-4 v -75 z"
   id="path18" />
	
		<linearGradient
   id="SVGID_2_"
   gradientUnits="userSpaceOnUse"
   x1="127278.45"
   y1="69960.617"
   x2="128916.86"
   y2="69960.617"
   gradientTransform="matrix(0.0311,0,0,0.0482,-3903.4512,-3296.7014)">
		<stop
   offset="0"
   style="stop-color:#665C37"
   id="stop21" />
		<stop
   offset="1"
   style="stop-color:#7D7040"
   id="stop23" />
	</linearGradient>
	<path
   inkscape:connector-curvature="0"
   style="fill:url(#linearGradient3123)"
   d="m 67.2,36.4 v 5.2 H 55 v 72.8 l 52,-3.8 V 36.4 H 67.2 z"
   id="path25" />
	
		<linearGradient
   id="SVGID_3_"
   gradientUnits="userSpaceOnUse"
   x1="127278.47"
   y1="69960.617"
   x2="128916.86"
   y2="69960.617"
   gradientTransform="matrix(0.0311,0,0,0.0482,-3954.4512,-3296.7014)">
		<stop
   offset="0"
   style="stop-color:#9E8E51"
   id="stop28" />
		<stop
   offset="1"
   style="stop-color:#887B4D"
   id="stop30" />
	</linearGradient>
	<path
   inkscape:connector-curvature="0"
   style="fill:url(#linearGradient3125)"
   d="M 55,41.6 H 45.2 V 36.4 H 3 v 74 l 52,4 V 41.6 z"
   id="path32" />
	<path
   style="fill:#f2ebcd"
   inkscape:connector-curvature="0"
   d="M 3,36.4 H 2 v 75 l 1,-1 v -74 z"
   id="path34" />
	<path
   style="fill:#786c43"
   inkscape:connector-curvature="0"
   d="m 55,115.4 v -1 l -52,-4 -1,1 53,4 z"
   id="path36" />
</g><g
   id="g38"
   transform="translate(0,-13.494253)">
	
		<linearGradient
   id="SVGID_4_"
   gradientUnits="userSpaceOnUse"
   x1="132585.73"
   y1="68200.352"
   x2="134224.53"
   y2="68200.352"
   gradientTransform="matrix(0.0299,0,0,0.0494,-3909.3132,-3295.6973)">
		<stop
   offset="0"
   style="stop-color:#A09667"
   id="stop41" />
		<stop
   offset="1"
   style="stop-color:#B1A56D"
   id="stop43" />
	</linearGradient>
	<path
   inkscape:connector-curvature="0"
   style="fill:url(#linearGradient3127)"
   d="M 104,32.4 H 92 l -37,5 v 77 c 15.5,-6.5 31.8,-9.9 49,-10 v -72 z"
   id="path45" />
	<path
   style="fill:#5c512a"
   inkscape:connector-curvature="0"
   d="m 105,32.4 h -1 v 72 c -17.2,0.1 -33.5,3.5 -49,10 v 1 c 16.5,-6.9 33.2,-10.2 50,-10 v -73 z"
   id="path47" />
	
		<linearGradient
   id="SVGID_5_"
   gradientUnits="userSpaceOnUse"
   x1="132585.73"
   y1="68200.352"
   x2="134224.53"
   y2="68200.352"
   gradientTransform="matrix(0.0299,0,0,0.0494,-3958.3132,-3295.6973)">
		<stop
   offset="0"
   style="stop-color:#C3B77F"
   id="stop50" />
		<stop
   offset="1"
   style="stop-color:#AAA070"
   id="stop52" />
	</linearGradient>
	<path
   inkscape:connector-curvature="0"
   style="fill:url(#linearGradient3129)"
   d="M 17,32.4 H 6 v 72 h 1 c 16.3,0.4 32.3,3.7 48,10 v -77 l -38,-5 z"
   id="path54" />
	<path
   style="fill:#f2ebcd"
   inkscape:connector-curvature="0"
   d="M 6,32.4 H 5 v 73 l 1,-1 v -72 z"
   id="path56" />
	<path
   style="fill:#786c43"
   inkscape:connector-curvature="0"
   d="m 55,115.4 v -1 C 39.3,108.1 23.3,104.8 7,104.4 H 6 l -1,1 c 17.9,0.3 34.5,3.6 50,10 z"
   id="path58" />
</g><g
   id="g60"
   transform="translate(0,-13.494253)">
	
		<linearGradient
   id="SVGID_6_"
   gradientUnits="userSpaceOnUse"
   x1="144587.06"
   y1="61600.461"
   x2="146225.47"
   y2="61600.461"
   gradientTransform="matrix(0.0275,0,0,0.0544,-3921.0376,-3281.7539)">
		<stop
   offset="0"
   style="stop-color:#F9F5E6"
   id="stop63" />
		<stop
   offset="1"
   style="stop-color:#EEE5BE"
   id="stop65" />
	</linearGradient>
	<path
   inkscape:connector-curvature="0"
   style="fill:url(#linearGradient3131)"
   d="m 101,25.4 h 1 c -17.5,-1.1 -33.2,2.9 -47,12 v 76 c 12.3,-10.1 27.7,-15.9 46,-17 v -71 z"
   id="path67" />
	<path
   style="fill:#5c512a"
   inkscape:connector-curvature="0"
   d="m 102,25.4 h -1 v 71 l 1,1 v -72 z"
   id="path69" />
	
		<linearGradient
   id="SVGID_7_"
   gradientUnits="userSpaceOnUse"
   x1="144587.08"
   y1="62328.641"
   x2="146225.47"
   y2="62328.641"
   gradientTransform="matrix(0.0275,0,0,0.0538,-3966.0376,-3283.9314)">
		<stop
   offset="0"
   style="stop-color:#EDE1C1"
   id="stop72" />
		<stop
   offset="1"
   style="stop-color:#E5D49A"
   id="stop74" />
	</linearGradient>
	<path
   inkscape:connector-curvature="0"
   style="fill:url(#linearGradient3133)"
   d="m 8,25.4 h 1 v 71 c 20,1.6 35.3,7.2 46,17 v -76 C 42.1,28.6 26.5,24.6 8,25.4 z"
   id="path76" />
	<path
   style="fill:#f2ebcd"
   inkscape:connector-curvature="0"
   d="M 9,25.4 H 8 v 72 l 1,-1 v -71 z"
   id="path78" />
	<path
   style="fill:#8f8456"
   inkscape:connector-curvature="0"
   d="m 9,96.4 -1,1 c 20.3,1.2 35.9,6.9 47,17 12.8,-10.6 28.5,-16.3 47,-17 l -1,-1 c -18.3,1.1 -33.7,6.9 -46,17 C 44.3,103.6 29,98 9,96.4 z"
   id="path80" />
</g><g
   id="g82"
   transform="matrix(1.3212917,0,0,1.0301885,-18.237131,-15.538281)">
	<path
   d="m 70,29.8 c -2.3,0.8 -4.7,1.8 -7,3 v 56.6 l 4,-5 3,2 V 29.8 z"
   id="path84"
   inkscape:connector-curvature="0"
   style="fill:#cbc8c1" />
</g><g
   id="g86"
   transform="matrix(1.3212918,0,0,1.0228716,-16.814268,-14.968378)">
	
		<linearGradient
   id="SVGID_8_"
   gradientUnits="userSpaceOnUse"
   x1="100782.68"
   y1="-115874.79"
   x2="102421.08"
   y2="-115874.79"
   gradientTransform="matrix(6e-4,0.0342,-0.036,7e-4,-4167.9482,-3334.4929)">
		<stop
   offset="0"
   style="stop-color:#F58C6F"
   id="stop89" />
		<stop
   offset="1"
   style="stop-color:#EB2D09"
   id="stop91" />
	</linearGradient>
	<path
   d="m 68,29.4 -7,3 v 56 l 4,-5 3,2 v -56 z"
   id="path93"
   style="fill:url(#linearGradient3182)"
   inkscape:connector-curvature="0" />
</g>
</svg>